<?xml version="1.0" encoding="UTF-8"?>
<svg xmlns="http://www.w3.org/2000/svg" viewBox="0 0 446.82 446.82">
  <defs>
    <style>
      .cls-1, .cls-2, .cls-3, .cls-4, .cls-5, .cls-6, .cls-7 {
        stroke-miterlimit: 10;
      }

      .cls-1, .cls-2, .cls-3, .cls-4, .cls-6, .cls-7 {
        stroke-width: 18px;
      }

      .cls-1, .cls-3, .cls-8, .cls-6 {
        fill: #1a1a1a;
      }

      .cls-1, .cls-4 {
        stroke: #dc7;
      }

      .cls-2, .cls-4, .cls-9, .cls-7 {
        fill: #fff;
      }

      .cls-2, .cls-6 {
        stroke: #48c1ad;
      }

      .cls-3, .cls-7 {
        stroke: #a49;
      }

      .cls-8, .cls-9, .cls-10 {
        stroke-width: 0px;
      }

      .cls-5 {
        fill: none;
        stroke: #1a1a1a;
        stroke-width: 44px;
      }

      .cls-10 {
        fill: #5b5b5b;
      }
    </style>
  </defs>
  <g id="Layer_5" data-name="Layer 5">
    <circle class="cls-9" cx="223.41" cy="223.41" r="201.41"/>
  </g>
  <g id="Layer_4" data-name="Layer 4">
    <path class="cls-10" d="m34.91,327.55c.17-.18.33-.36.49-.54-.2.17-.38.35-.49.54Z"/>
    <path class="cls-8" d="m241.22,406.08c6.87,2.01,15.38-2.61,21.39,1.71,2.22,2.89,5.15,3.05,8.35,2.33,1.45,1.19,6.81,4.42,4.72-.92,3.48-2.55,12.98-4.85,18.09-7.31,1.97,3.19.03,8.06,2.63,11.17.24-.94,26.67-9.31,26.89-10.26-1.53-31.04-.13-62.44-7.62-92.77-8.69-32.75-58.64-73.33-22.91-103.28,0,0,0,0,0,0,6.58-6.68,7.14-19.43,10.68-26.04-.49.17-.98.37-1.48.62,5.38.84,12.77,5.25,16.86-.32h0c13.78-1.88,6.35,7.62,12.22,13.44,5.9-4.12,5.74-15.31,5.64-22.62h0c-1.91-14.25-11.8-25.51-22.72-33.82-1.73-20.58-28.94-30.99-46.37-36.98,0,0,0,0,0,0-63.18-23.13-143.18,7.57-158.05,77.31,0,0,0,0,0,0-2.74,16.7-16.81,32.53-15.36,48.81,0,0,0,0,0,0,.59,18.89-73.38,98.68-53.72,89.01-.9,3.74-2.09,7.5-5.05,10.85,5.86-4.76,19.67,2.84,21.18-6.9,3.38,1.59,6.53,1.9,11.11-.07-3.56,9.92-9.92,1.68-7.07,17.88-14.12,14.39-7.5-1.05-10.49,18.59,3.96-3.45,8.32-4.39,12.22-8.36-2.48,2.72-4.44,5.86-6.22,9.17,6.08-1.7,4.69,1.93,10.83-1.75-.96,2.1,6.5,2.2,4.64.2.93-.73,1.78-1.63,2.57-2.65,3.56,6.34,10.5-.41,15.15-1.83,4.03,14.15,8.05,31.21,6.12,33.96,4.94,6.31,31.07,8.35,20.66-3.04,2.99-1.31,6.15-1.74,8.98-.25-3.44,9.63-1.09,18.26,4.78,26.5-.23-.68-.54-1.33-.98-1.95-8.77,18.04,10.58,6.98,10.22-1.48,13.43-11.27,30.97,21.74,41.43,5.81m0,0h0c-.23,1.2-.46,2.39-.69,3.59,10.82,2.08,45.34,15.61,48.62,4.39,3.06,7.8,11.86-1.61,9.04-6.73h0c.63-2.14,5.34-3.7,3.71-6.01"/>
  </g>
  <g id="Layer_3" data-name="Layer 3">
    <g>
      <line class="cls-2" x1="225.42" y1="149.27" x2="60.48" y2="341.82"/>
      <circle class="cls-6" cx="225.42" cy="149.27" r="27.82"/>
    </g>
    <g>
      <line class="cls-7" x1="225.9" y1="238.87" x2="102.15" y2="383.33"/>
      <circle class="cls-3" cx="225.9" cy="238.87" r="27.82"/>
    </g>
    <g>
      <line class="cls-4" x1="225.9" y1="329.92" x2="155.05" y2="412.63"/>
      <circle class="cls-1" cx="225.9" cy="329.92" r="27.82"/>
    </g>
  </g>
  <g id="Layer_2" data-name="Layer 2">
    <circle class="cls-5" cx="223.41" cy="223.41" r="201.41"/>
  </g>
</svg>